<?xml version="1.0" encoding="UTF-8" standalone="no"?>
<!DOCTYPE svg PUBLIC "-//W3C//DTD SVG 1.1//EN" "http://www.w3.org/Graphics/SVG/1.1/DTD/svg11.dtd">
<svg width="100%" height="100%" viewBox="0 0 74 75" version="1.1" xmlns="http://www.w3.org/2000/svg" xmlns:xlink="http://www.w3.org/1999/xlink" xml:space="preserve" xmlns:serif="http://www.serif.com/" style="fill-rule:evenodd;clip-rule:evenodd;stroke-linejoin:round;stroke-miterlimit:2;">
    <g transform="matrix(0.508434,0,0,0.508434,36.4484,58.683)">
        <clipPath id="_clip1">
            <rect id="Bright-Duo-Logo.svg" serif:id="Bright Duo Logo.svg" x="-71.688" y="-115.419" width="144.134" height="147.465"/>
        </clipPath>
        <g clip-path="url(#_clip1)">
            <g transform="matrix(1,0,0,1,-80,-128)">
                <g transform="matrix(1.01071,0,0,1.01058,-170.812,-258.76)">
                    <g transform="matrix(-0.11387,-1.39451e-17,1.42213e-17,-0.116125,319.668,413.981)">
                        <g transform="matrix(4.16667,0,0,4.16667,-437.5,-437.5)">
                            <path d="M407,407L220.81,407C157.279,407 105,354.721 105,291.19L105,105L332.15,105C373.211,105 407,138.789 407,179.85L407,407Z" style="fill:rgb(13,49,52);fill-rule:nonzero;"/>
                        </g>
                        <g transform="matrix(3.29077,-1.62247e-31,0,3.29077,87.1254,189.06)">
                            <circle cx="115.5" cy="182.5" r="88.39" style="fill:rgb(81,168,177);"/>
                        </g>
                        <g transform="matrix(4.20079,-3.20063e-31,-9.41668e-32,4.20079,-27.7554,50.0396)">
                            <circle cx="227.81" cy="72.19" r="44.19" style="fill:rgb(246,161,51);"/>
                        </g>
                    </g>
                </g>
            </g>
        </g>
    </g>
</svg>
